<?xml version="1.0" encoding="utf-8"?>
<!-- Generator: Adobe Illustrator 16.0.0, SVG Export Plug-In . SVG Version: 6.00 Build 0)  -->
<!DOCTYPE svg PUBLIC "-//W3C//DTD SVG 1.1//EN" "http://www.w3.org/Graphics/SVG/1.1/DTD/svg11.dtd">
<svg version="1.1" id="Layer_1" xmlns="http://www.w3.org/2000/svg" xmlns:xlink="http://www.w3.org/1999/xlink" x="0px" y="0px"
	 width="81.391px" height="40.07px" viewBox="0 0 81.391 40.07" enable-background="new 0 0 81.391 40.07" xml:space="preserve">
<g>
	<g>
		<g>
			<g>
				<path d="M8.945,5.961c-1.483,0-2.491,0.531-2.491,1.596c0,3.613,10.443,1.596,10.416,8.652c0,3.836-3.332,5.908-7.673,5.908
					c-3.22,0-6.439-1.232-8.651-3.109l1.765-3.611c2.017,1.793,4.871,2.941,6.943,2.941c1.82,0,2.912-0.672,2.912-1.877
					c0-3.695-10.444-1.539-10.444-8.484c0-3.555,3.053-5.795,7.588-5.795c2.744,0,5.488,0.84,7.448,2.127l-1.708,3.668
					C12.978,6.746,10.513,5.961,8.945,5.961z"/>
				<path d="M24.205,6.914v15.063h-4.313V6.914H24.205z M24.149,2.629c0,1.231-0.867,2.156-2.101,2.156
					c-1.231,0-2.1-0.925-2.1-2.156c0-1.26,0.867-2.156,2.1-2.156C23.281,0.473,24.149,1.369,24.149,2.629z"/>
				<path d="M42.208,15.762H31.4c0.504,1.904,1.96,3.023,3.894,3.023c1.426,0,2.77-0.562,3.807-1.597l2.269,2.295
					c-1.513,1.683-3.726,2.66-6.439,2.66c-4.816,0-7.868-3.08-7.868-7.643c0-4.648,3.164-7.729,7.756-7.729
					C40.108,6.773,42.573,10.273,42.208,15.762z M38.176,13.213c-0.057-1.988-1.344-3.275-3.332-3.275
					c-1.904,0-3.192,1.287-3.528,3.275H38.176z"/>
				<path d="M54.36,6.746v4.059c-3.08-0.279-4.983,1.373-4.983,3.92v7.252h-4.313V6.914h4.313v2.715
					C50.411,7.781,52.12,6.773,54.36,6.746z"/>
				<path d="M66.006,6.746v4.059c-3.08-0.279-4.984,1.373-4.984,3.92v7.252h-4.311V6.914h4.311v2.715
					C62.059,7.781,63.766,6.773,66.006,6.746z"/>
				<path d="M76.618,21.977v-1.764c-1.009,1.26-2.632,1.961-4.73,1.961c-3.221,0-5.18-1.961-5.18-4.705
					c0-2.828,2.043-4.508,5.737-4.535h4.146v-0.281c0-1.596-1.064-2.52-3.137-2.52c-1.345,0-2.91,0.449-4.479,1.316l-1.344-2.97
					c2.238-1.119,4.172-1.733,6.803-1.733c4.033,0,6.355,2.016,6.385,5.401l0.027,9.828L76.618,21.977L76.618,21.977z M76.59,16.824
					V15.48h-3.389c-1.65,0-2.464,0.504-2.464,1.709c0,1.148,0.896,1.902,2.353,1.902C74.911,19.092,76.338,18.113,76.59,16.824z"/>
			</g>
		</g>
	</g>
	<g>
		<path d="M9.525,31.889c0,1.197-0.715,2.06-1.897,2.307c1.475,0.221,2.336,1.184,2.336,2.586c0,1.736-1.373,2.773-3.694,2.773
			H1.902V29.333H6.21C8.269,29.333,9.525,30.282,9.525,31.889z M8.328,32.063c0-1.052-0.804-1.649-2.177-1.649H3.071v3.345h3.081
			C7.524,33.758,8.328,33.145,8.328,32.063z M8.78,36.634c0-1.139-0.964-1.811-2.628-1.796H3.071v3.636h3.081
			C7.816,38.488,8.78,37.817,8.78,36.634z"/>
		<path d="M17.313,38.532c1.942,0,3.11-1.168,3.11-3.185v-6.016h1.168v6.016c0,2.673-1.606,4.25-4.278,4.25
			c-2.687,0-4.308-1.577-4.308-4.25v-6.016h1.168v6.016C14.174,37.365,15.371,38.532,17.313,38.532z"/>
		<path d="M28.3,30.428c-1.314,0-2.176,0.526-2.176,1.402c0,2.656,5.753,1.271,5.738,4.979c0,1.693-1.504,2.789-3.693,2.789
			c-1.49,0-2.95-0.643-3.914-1.563l0.526-1.009c0.948,0.905,2.248,1.433,3.401,1.433c1.476,0,2.396-0.601,2.396-1.592
			c0.015-2.731-5.739-1.285-5.739-4.95c0-1.606,1.417-2.629,3.534-2.629c1.183,0,2.395,0.38,3.242,0.948l-0.497,1.037
			C30.198,30.677,29.118,30.428,28.3,30.428z"/>
		<path d="M36.307,29.333v10.222h-1.169V29.333H36.307z"/>
		<path d="M41.493,29.333l6.133,8.309v-8.309h1.153v10.222h-1.196l-6.133-8.294v8.294h-1.169V29.333H41.493z"/>
		<path d="M59.708,29.333v1.08H53.94v3.432h5.154v1.066H53.94v3.563h5.957v1.081h-7.125V29.333H59.708z"/>
		<path d="M66.124,30.428c-1.314,0-2.176,0.526-2.176,1.402c0,2.656,5.753,1.271,5.737,4.979c0,1.693-1.504,2.789-3.693,2.789
			c-1.489,0-2.95-0.643-3.913-1.563l0.524-1.009c0.949,0.905,2.248,1.433,3.402,1.433c1.475,0,2.395-0.601,2.395-1.592
			c0.016-2.731-5.737-1.285-5.737-4.95c0-1.606,1.416-2.629,3.532-2.629c1.185,0,2.396,0.38,3.242,0.948l-0.496,1.037
			C68.022,30.677,66.941,30.428,66.124,30.428z"/>
		<path d="M75.926,30.428c-1.314,0-2.176,0.526-2.176,1.402c0,2.656,5.753,1.271,5.737,4.979c0,1.693-1.504,2.789-3.693,2.789
			c-1.489,0-2.95-0.643-3.913-1.563l0.525-1.009c0.948,0.905,2.247,1.433,3.401,1.433c1.476,0,2.396-0.601,2.396-1.592
			c0.015-2.731-5.738-1.285-5.738-4.95c0-1.606,1.416-2.629,3.533-2.629c1.184,0,2.395,0.38,3.242,0.948l-0.496,1.037
			C77.825,30.677,76.744,30.428,75.926,30.428z"/>
	</g>
</g>
</svg>
